# xmcd
#
# Track frame offsets: 
#        172
#        18528
#        32951
#        49671
#        67966
#        86104
#        102149
#        117763
#        135814
#        149836
#        167125
#        180793
#        196673
#        213070
#
# Disc length: 3033 seconds
#
# Revision: 0
# Processed by: cddbd v1.5.2PL0 Copyright (c) Steve Scherf et al.
# Submitted via: ExactAudioCopyFreeDBPlugin 1.0
#
DISCID=b50bd70e
DTITLE=Straw Dogs - Love and then Hope
DYEAR=2009
DGENRE=Country-Rock
TTITLE0=Lie Awake
TTITLE1=Could You
TTITLE2=Down My Hall
TTITLE3=Serious Love
TTITLE4=Fire Outside
TTITLE5=Remember My Garden
TTITLE6=Something More
TTITLE7=Rather Be
TTITLE8=Fallow
TTITLE9=Numbers
TTITLE10=Waiting By the Gate
TTITLE11=Sure of Goodbye
TTITLE12=Then Maria
TTITLE13=First Time
EXTD=
EXTT0=
EXTT1=
EXTT2=
EXTT3=
EXTT4=
EXTT5=
EXTT6=
EXTT7=
EXTT8=
EXTT9=
EXTT10=
EXTT11=
EXTT12=
EXTT13=
PLAYORDER=
